<svg width="600" height="600" viewBox="0 0 600 600" fill="none" xmlns="http://www.w3.org/2000/svg">
  <rect width="600" height="600" fill="#18181b"/>
  <!-- Barbell shaft -->
  <rect x="50" y="290" width="500" height="16" rx="8" fill="#d4d4d8"/>
  <!-- Knurling marks -->
  <rect x="180" y="292" width="80" height="12" rx="2" fill="#a1a1aa"/>
  <rect x="340" y="292" width="80" height="12" rx="2" fill="#a1a1aa"/>
  <!-- Sleeve collars -->
  <rect x="130" y="284" width="8" height="28" rx="2" fill="#71717a"/>
  <rect x="462" y="284" width="8" height="28" rx="2" fill="#71717a"/>
  <!-- Left plates -->
  <rect x="60" y="220" width="20" height="156" rx="6" fill="#ea580c"/>
  <text x="70" y="302" text-anchor="middle" fill="#18181b" font-family="system-ui" font-size="10" font-weight="900" transform="rotate(-90 70 302)">45</text>
  <rect x="84" y="230" width="16" height="136" rx="5" fill="#f97316"/>
  <text x="92" y="302" text-anchor="middle" fill="#18181b" font-family="system-ui" font-size="9" font-weight="900" transform="rotate(-90 92 302)">35</text>
  <rect x="104" y="242" width="14" height="112" rx="4" fill="#ea580c"/>
  <text x="111" y="302" text-anchor="middle" fill="#18181b" font-family="system-ui" font-size="8" font-weight="900" transform="rotate(-90 111 302)">25</text>
  <rect x="122" y="260" width="10" height="76" rx="3" fill="#f97316"/>
  <!-- Right plates -->
  <rect x="520" y="220" width="20" height="156" rx="6" fill="#ea580c"/>
  <rect x="500" y="230" width="16" height="136" rx="5" fill="#f97316"/>
  <rect x="482" y="242" width="14" height="112" rx="4" fill="#ea580c"/>
  <rect x="468" y="260" width="10" height="76" rx="3" fill="#f97316"/>
  <!-- Spring clips -->
  <path d="M135 286 L142 286 L142 310 L135 310" stroke="#71717a" stroke-width="3" fill="none"/>
  <path d="M465 286 L458 286 L458 310 L465 310" stroke="#71717a" stroke-width="3" fill="none"/>
  <text x="300" y="560" text-anchor="middle" fill="#3f3f46" font-family="system-ui" font-size="14" font-weight="900" letter-spacing="4">CAP BARBELL 300LB SET</text>
</svg>
