<svg width="600" height="600" viewBox="0 0 600 600" fill="none" xmlns="http://www.w3.org/2000/svg">
  <rect width="600" height="600" fill="#18181b"/>
  <!-- Power rack frame -->
  <rect x="150" y="100" width="20" height="400" rx="3" fill="#52525b"/>
  <rect x="430" y="100" width="20" height="400" rx="3" fill="#52525b"/>
  <rect x="150" y="100" width="300" height="20" rx="3" fill="#52525b"/>
  <rect x="150" y="480" width="300" height="20" rx="3" fill="#52525b"/>
  <!-- Pull-up bar -->
  <rect x="170" y="110" width="260" height="12" rx="6" fill="#71717a"/>
  <!-- J-cups -->
  <rect x="155" y="300" width="30" height="8" rx="2" fill="#ea580c"/>
  <rect x="415" y="300" width="30" height="8" rx="2" fill="#ea580c"/>
  <!-- Safety bars -->
  <rect x="170" y="380" width="260" height="6" rx="3" fill="#3f3f46"/>
  <!-- Barbell on j-cups -->
  <rect x="100" y="290" width="400" height="14" rx="7" fill="#a1a1aa"/>
  <!-- Plates left -->
  <rect x="105" y="260" width="12" height="74" rx="3" fill="#ea580c"/>
  <rect x="90" y="270" width="12" height="54" rx="3" fill="#ea580c"/>
  <!-- Plates right -->
  <rect x="483" y="260" width="12" height="74" rx="3" fill="#ea580c"/>
  <rect x="498" y="270" width="12" height="54" rx="3" fill="#ea580c"/>
  <!-- Brand -->
  <text x="300" y="560" text-anchor="middle" fill="#3f3f46" font-family="system-ui" font-size="14" font-weight="900" letter-spacing="4">FITNESS REALITY 810XLT</text>
</svg>
