<svg width="600" height="600" viewBox="0 0 600 600" fill="none" xmlns="http://www.w3.org/2000/svg">
  <rect width="600" height="600" fill="#18181b"/>
  <rect x="160" y="290" width="280" height="30" rx="6" fill="#3f3f46"/>
  <rect x="165" y="295" width="270" height="20" rx="4" fill="#27272a"/>
  <rect x="140" y="180" width="14" height="150" rx="3" fill="#52525b"/>
  <rect x="445" y="180" width="14" height="150" rx="3" fill="#52525b"/>
  <rect x="135" y="178" width="30" height="10" rx="3" fill="#ea580c"/>
  <rect x="440" y="178" width="30" height="10" rx="3" fill="#ea580c"/>
  <rect x="100" y="260" width="400" height="10" rx="4" fill="#d4d4d8"/>
  <rect x="100" y="255" width="15" height="20" rx="3" fill="#3f3f46"/>
  <rect x="485" y="255" width="15" height="20" rx="3" fill="#3f3f46"/>
  <rect x="170" y="340" width="10" height="80" rx="2" fill="#52525b"/>
  <rect x="415" y="340" width="10" height="80" rx="2" fill="#52525b"/>
  <rect x="120" y="410" width="100" height="10" rx="3" fill="#3f3f46"/>
  <rect x="380" y="410" width="100" height="10" rx="3" fill="#3f3f46"/>
  <rect x="230" y="340" width="140" height="12" rx="3" fill="#52525b"/>
  <circle cx="260" cy="370" r="12" fill="#3f3f46"/>
  <circle cx="340" cy="370" r="12" fill="#3f3f46"/>
  <text x="300" y="560" text-anchor="middle" fill="#3f3f46" font-family="system-ui" font-size="14" font-weight="900" letter-spacing="4">MARCY OLYMPIC BENCH MD-857</text>
</svg>
