<svg width="600" height="600" viewBox="0 0 600 600" fill="none" xmlns="http://www.w3.org/2000/svg">
  <rect width="600" height="600" fill="#18181b"/>
  <rect x="150" y="230" width="100" height="140" rx="6" fill="#3f3f46" stroke="#52525b" stroke-width="2"/>
  <rect x="160" y="245" width="80" height="8" rx="2" fill="#52525b"/>
  <rect x="160" y="260" width="80" height="8" rx="2" fill="#52525b"/>
  <rect x="160" y="275" width="80" height="8" rx="2" fill="#52525b"/>
  <rect x="160" y="290" width="80" height="8" rx="2" fill="#52525b"/>
  <rect x="160" y="305" width="80" height="8" rx="2" fill="#ea580c"/>
  <rect x="350" y="230" width="100" height="140" rx="6" fill="#3f3f46" stroke="#52525b" stroke-width="2"/>
  <rect x="360" y="245" width="80" height="8" rx="2" fill="#52525b"/>
  <rect x="360" y="260" width="80" height="8" rx="2" fill="#52525b"/>
  <rect x="360" y="275" width="80" height="8" rx="2" fill="#52525b"/>
  <rect x="360" y="290" width="80" height="8" rx="2" fill="#52525b"/>
  <rect x="360" y="305" width="80" height="8" rx="2" fill="#ea580c"/>
  <text x="200" y="340" text-anchor="middle" fill="#ea580c" font-family="system-ui" font-size="14" font-weight="900">90</text>
  <text x="400" y="340" text-anchor="middle" fill="#ea580c" font-family="system-ui" font-size="14" font-weight="900">90</text>
  <text x="300" y="560" text-anchor="middle" fill="#3f3f46" font-family="system-ui" font-size="14" font-weight="900" letter-spacing="4">POWERBLOCK ELITE 90</text>
</svg>
