<svg width="600" height="600" viewBox="0 0 600 600" fill="none" xmlns="http://www.w3.org/2000/svg">
  <rect width="600" height="600" fill="#18181b"/>
  <!-- Premium rack frame (thicker) -->
  <rect x="140" y="80" width="28" height="430" rx="4" fill="#71717a"/>
  <rect x="432" y="80" width="28" height="430" rx="4" fill="#71717a"/>
  <rect x="140" y="80" width="320" height="28" rx="4" fill="#71717a"/>
  <rect x="140" y="482" width="320" height="28" rx="4" fill="#71717a"/>
  <!-- Cross members -->
  <rect x="168" y="180" width="264" height="8" rx="2" fill="#52525b"/>
  <rect x="168" y="420" width="264" height="8" rx="2" fill="#52525b"/>
  <!-- Multi-grip pull-up bar -->
  <rect x="168" y="88" width="264" height="14" rx="7" fill="#a1a1aa"/>
  <rect x="220" y="88" width="14" height="40" rx="3" fill="#a1a1aa"/>
  <rect x="366" y="88" width="14" height="40" rx="3" fill="#a1a1aa"/>
  <!-- UHMW J-cups -->
  <rect x="145" y="280" width="40" height="12" rx="3" fill="#ea580c"/>
  <rect x="415" y="280" width="40" height="12" rx="3" fill="#ea580c"/>
  <!-- Barbell -->
  <rect x="80" y="270" width="440" height="16" rx="8" fill="#d4d4d8"/>
  <!-- Plates left -->
  <rect x="82" y="234" width="16" height="84" rx="4" fill="#ea580c"/>
  <rect x="62" y="244" width="16" height="64" rx="4" fill="#ea580c"/>
  <rect x="42" y="254" width="16" height="44" rx="4" fill="#ea580c"/>
  <!-- Plates right -->
  <rect x="502" y="234" width="16" height="84" rx="4" fill="#ea580c"/>
  <rect x="522" y="244" width="16" height="64" rx="4" fill="#ea580c"/>
  <rect x="542" y="254" width="16" height="44" rx="4" fill="#ea580c"/>
  <!-- Hole pattern -->
  <circle cx="154" cy="200" r="3" fill="#3f3f46"/>
  <circle cx="154" cy="220" r="3" fill="#3f3f46"/>
  <circle cx="154" cy="240" r="3" fill="#3f3f46"/>
  <circle cx="154" cy="260" r="3" fill="#3f3f46"/>
  <circle cx="154" cy="320" r="3" fill="#3f3f46"/>
  <circle cx="154" cy="340" r="3" fill="#3f3f46"/>
  <text x="300" y="560" text-anchor="middle" fill="#3f3f46" font-family="system-ui" font-size="14" font-weight="900" letter-spacing="4">ROGUE R-3 MONSTER LITE</text>
</svg>
