<svg width="600" height="600" viewBox="0 0 600 600" fill="none" xmlns="http://www.w3.org/2000/svg">
  <rect width="600" height="600" fill="#18181b"/>
  <rect x="130" y="80" width="24" height="430" rx="3" fill="#52525b"/>
  <rect x="446" y="80" width="24" height="430" rx="3" fill="#52525b"/>
  <rect x="130" y="80" width="340" height="24" rx="3" fill="#52525b"/>
  <rect x="130" y="486" width="340" height="24" rx="3" fill="#52525b"/>
  <rect x="156" y="92" width="288" height="10" rx="3" fill="#a1a1aa"/>
  <rect x="50" y="200" width="4" height="200" rx="2" fill="#a1a1aa"/>
  <rect x="45" y="200" width="14" height="20" rx="3" fill="#3f3f46"/>
  <rect x="40" y="395" width="30" height="15" rx="3" fill="#ea580c"/>
  <rect x="546" y="200" width="4" height="200" rx="2" fill="#a1a1aa"/>
  <rect x="541" y="200" width="14" height="20" rx="3" fill="#3f3f46"/>
  <rect x="530" y="395" width="30" height="15" rx="3" fill="#ea580c"/>
  <circle cx="52" cy="400" r="8" fill="#71717a"/>
  <circle cx="548" cy="400" r="8" fill="#71717a"/>
  <rect x="80" y="290" width="440" height="14" rx="7" fill="#d4d4d8"/>
  <rect x="82" y="258" width="14" height="78" rx="4" fill="#ea580c"/>
  <rect x="504" y="258" width="14" height="78" rx="4" fill="#ea580c"/>
  <rect x="156" y="405" width="288" height="8" rx="3" fill="#3f3f46"/>
  <text x="300" y="560" text-anchor="middle" fill="#3f3f46" font-family="system-ui" font-size="14" font-weight="900" letter-spacing="4">SPORTSROYALS POWER CAGE</text>
</svg>
