<svg width="600" height="600" viewBox="0 0 600 600" fill="none" xmlns="http://www.w3.org/2000/svg">
  <rect width="600" height="600" fill="#18181b"/>
  <!-- Rack frame (2x3) -->
  <rect x="148" y="90" width="22" height="420" rx="3" fill="#52525b"/>
  <rect x="430" y="90" width="22" height="420" rx="3" fill="#52525b"/>
  <rect x="148" y="90" width="304" height="22" rx="3" fill="#52525b"/>
  <rect x="148" y="488" width="304" height="22" rx="3" fill="#52525b"/>
  <!-- Laser-cut numbers -->
  <text x="162" y="195" fill="#ea580c" font-family="system-ui" font-size="8" font-weight="700">24</text>
  <text x="162" y="215" fill="#3f3f46" font-family="system-ui" font-size="8" font-weight="700">23</text>
  <text x="162" y="235" fill="#3f3f46" font-family="system-ui" font-size="8" font-weight="700">22</text>
  <text x="162" y="255" fill="#3f3f46" font-family="system-ui" font-size="8" font-weight="700">21</text>
  <text x="162" y="275" fill="#ea580c" font-family="system-ui" font-size="8" font-weight="700">20</text>
  <!-- Pull-up bar -->
  <rect x="170" y="98" width="260" height="10" rx="5" fill="#a1a1aa"/>
  <!-- J-cups -->
  <rect x="153" y="285" width="35" height="8" rx="2" fill="#f97316"/>
  <rect x="412" y="285" width="35" height="8" rx="2" fill="#f97316"/>
  <!-- Barbell -->
  <rect x="95" y="277" width="410" height="14" rx="7" fill="#d4d4d8"/>
  <!-- Plates -->
  <rect x="97" y="248" width="13" height="72" rx="3" fill="#f97316"/>
  <rect x="80" y="258" width="13" height="52" rx="3" fill="#ea580c"/>
  <rect x="490" y="248" width="13" height="72" rx="3" fill="#f97316"/>
  <rect x="507" y="258" width="13" height="52" rx="3" fill="#ea580c"/>
  <text x="300" y="560" text-anchor="middle" fill="#3f3f46" font-family="system-ui" font-size="14" font-weight="900" letter-spacing="4">TITAN FITNESS T-3</text>
</svg>
